<svg id="visual" viewBox="0 0 960 540" width="960" height="540" xmlns="http://www.w3.org/2000/svg" xmlns:xlink="http://www.w3.org/1999/xlink" version="1.1"><rect x="0" y="0" width="960" height="540" fill="#000000"></rect><defs><linearGradient id="grad1_0" x1="43.8%" y1="0%" x2="100%" y2="100%"><stop offset="14.444444444444446%" stop-color="#000000" stop-opacity="1"></stop><stop offset="85.55555555555554%" stop-color="#000000" stop-opacity="1"></stop></linearGradient></defs><defs><linearGradient id="grad2_0" x1="0%" y1="0%" x2="56.3%" y2="100%"><stop offset="14.444444444444446%" stop-color="#000000" stop-opacity="1"></stop><stop offset="85.55555555555554%" stop-color="#000000" stop-opacity="1"></stop></linearGradient></defs><g transform="translate(960, 0)"><path d="M0 378C-9 303 -18 228.1 -55 240.8C-92 253.5 -157 353.9 -164 340.6C-171.1 327.2 -120.1 200.2 -132.8 166.5C-145.5 132.8 -221.7 192.5 -247.1 197C-272.4 201.6 -246.9 151 -258.6 124.5C-270.2 98 -319 95.5 -345.1 78.8C-371.2 62 -374.6 31 -378 0L0 0Z" fill="#9201CB"></path></g><g transform="translate(0, 540)"><path d="M0 -378C10 -292.3 20.1 -206.6 48.1 -210.6C76 -214.6 121.9 -308.3 164 -340.6C206.1 -372.9 244.3 -343.8 232.6 -291.6C220.8 -239.4 159.2 -164.1 184.5 -147.1C209.8 -130.2 322.1 -171.6 338.8 -163.1C355.4 -154.7 276.5 -96.5 267.1 -61C257.7 -25.5 317.9 -12.7 378 0L0 0Z" fill="#9201CB"></path></g></svg>