<svg xmlns="http://www.w3.org/2000/svg" xmlns:xlink="http://www.w3.org/1999/xlink" width="500" zoomAndPan="magnify" viewBox="0 0 375 374.999991" height="500" preserveAspectRatio="xMidYMid meet" version="1.0"><defs><g/><clipPath id="ca126496a8"><path d="M 15 145.078125 L 360 145.078125 L 360 208.828125 L 15 208.828125 Z M 15 145.078125 " clip-rule="nonzero"/></clipPath><clipPath id="436838c0a0"><path d="M 285.867188 107 L 331.617188 107 L 331.617188 139.085938 L 285.867188 139.085938 Z M 285.867188 107 " clip-rule="nonzero"/></clipPath><clipPath id="0e024426f8"><path d="M 285.867188 97 L 331.617188 97 L 331.617188 130 L 285.867188 130 Z M 285.867188 97 " clip-rule="nonzero"/></clipPath><clipPath id="041681f0c9"><path d="M 285.867188 87.335938 L 331.617188 87.335938 L 331.617188 120 L 285.867188 120 Z M 285.867188 87.335938 " clip-rule="nonzero"/></clipPath></defs><path fill="#ffffff" d="M 356.636719 192.855469 C 355.382812 202.421875 349.164062 205.496094 340.222656 205.425781 C 340.085938 205.425781 339.945312 205.425781 339.804688 205.425781 C 316.40625 208.570312 290.003906 205.847656 266.253906 206.054688 C 239.988281 206.265625 213.65625 206.335938 187.394531 206.335938 C 135.984375 206.335938 84.574219 206.054688 33.164062 206.476562 C 20.242188 206.542969 17.171875 193.902344 17.449219 181.1875 C 17.378906 180.769531 17.308594 180.351562 17.238281 179.933594 C 17.171875 179.023438 17.101562 178.1875 17.171875 177.277344 C 16.960938 176.507812 16.890625 175.742188 16.960938 174.761719 C 17.589844 164.773438 18.21875 153.460938 26.878906 149.339844 C 28.066406 148.359375 29.671875 147.730469 31.769531 147.941406 C 31.910156 147.941406 31.976562 147.941406 32.117188 147.941406 C 32.539062 147.871094 32.886719 147.800781 33.304688 147.800781 C 86.878906 147.800781 140.59375 148.5 194.308594 148.640625 C 219.382812 148.710938 244.390625 148.640625 269.464844 148.429688 C 292.378906 148.289062 315.917969 146.265625 338.6875 148.152344 C 348.605469 148.988281 354.824219 150.804688 356.078125 161.5625 C 357.199219 171.761719 357.964844 182.726562 356.636719 192.855469 Z M 356.636719 192.855469 " fill-opacity="1" fill-rule="nonzero"/><g clip-path="url(#ca126496a8)"><path fill="#ffffff" d="M 312.773438 208.710938 C 305.300781 208.710938 297.824219 208.5 290.421875 208.222656 C 282.386719 207.941406 274.078125 207.730469 266.253906 207.800781 C 242.714844 208.011719 216.871094 208.082031 187.394531 208.082031 C 172.726562 208.082031 158.054688 208.082031 143.320312 208.011719 C 107.207031 207.941406 69.90625 207.871094 33.164062 208.222656 C 33.097656 208.222656 33.097656 208.222656 33.027344 208.222656 C 28.484375 208.222656 24.714844 206.753906 21.851562 203.890625 C 17.519531 199.488281 15.425781 191.875 15.632812 181.328125 L 15.425781 180.003906 C 15.355469 179.164062 15.285156 178.394531 15.355469 177.488281 C 15.144531 176.578125 15.074219 175.742188 15.144531 174.695312 L 15.144531 174.414062 C 15.914062 164.078125 16.613281 152.480469 25.972656 147.871094 C 27.648438 146.613281 29.671875 145.984375 31.910156 146.195312 L 32.046875 146.195312 C 32.46875 146.125 32.886719 146.054688 33.375 146.054688 C 63.132812 146.054688 93.445312 146.265625 122.710938 146.472656 C 146.183594 146.613281 170.488281 146.824219 194.378906 146.894531 C 219.316406 146.964844 244.601562 146.894531 269.535156 146.683594 C 276.941406 146.613281 284.554688 146.40625 291.957031 146.125 C 307.464844 145.636719 323.460938 145.078125 338.964844 146.40625 C 348.464844 147.242188 356.5 148.917969 357.964844 161.351562 C 359.011719 171.0625 359.921875 182.375 358.523438 193.0625 C 357.265625 202.632812 351.328125 207.242188 340.363281 207.171875 L 340.085938 207.171875 C 331.214844 208.359375 322.0625 208.710938 312.773438 208.710938 Z M 268.976562 204.308594 C 276.03125 204.308594 283.4375 204.519531 290.5625 204.730469 C 307.046875 205.21875 324.089844 205.777344 339.59375 203.679688 L 340.222656 203.679688 C 340.292969 203.679688 340.433594 203.679688 340.503906 203.679688 C 349.445312 203.679688 353.914062 200.257812 354.890625 192.644531 C 356.21875 182.308594 355.382812 171.269531 354.332031 161.769531 C 353.285156 152.621094 348.816406 150.804688 338.546875 149.898438 C 323.25 148.640625 307.324219 149.128906 291.957031 149.617188 C 284.554688 149.828125 276.941406 150.105469 269.464844 150.175781 C 244.53125 150.386719 219.246094 150.457031 194.308594 150.386719 C 170.421875 150.316406 146.113281 150.175781 122.644531 149.964844 C 93.375 149.828125 63.0625 149.546875 33.304688 149.546875 C 33.097656 149.546875 32.886719 149.617188 32.539062 149.617188 L 32.117188 149.6875 L 31.628906 149.6875 C 30.230469 149.546875 28.976562 149.898438 27.996094 150.664062 L 27.855469 150.804688 L 27.648438 150.875 C 20.035156 154.578125 19.335938 165.195312 18.777344 174.625 L 18.777344 174.902344 C 18.707031 175.671875 18.707031 176.230469 18.847656 176.859375 L 18.917969 177.136719 L 18.917969 177.417969 C 18.847656 178.1875 18.917969 178.882812 18.988281 179.722656 L 19.195312 181.050781 L 19.195312 181.1875 C 18.988281 190.757812 20.800781 197.742188 24.433594 201.445312 C 26.601562 203.679688 29.464844 204.730469 33.097656 204.730469 C 33.097656 204.730469 33.164062 204.730469 33.164062 204.730469 C 69.90625 204.449219 107.207031 204.519531 143.386719 204.519531 C 158.054688 204.519531 172.726562 204.589844 187.464844 204.589844 C 217.007812 204.589844 242.785156 204.519531 266.324219 204.308594 C 267.160156 204.308594 268.070312 204.308594 268.976562 204.308594 Z M 268.976562 204.308594 " fill-opacity="1" fill-rule="nonzero"/></g><path stroke-linecap="butt" transform="matrix(0.740488, 0, 0, 0.740488, 30.557264, 126.532024)" fill="none" stroke-linejoin="miter" d="M 65.024351 103.699538 L 46.218136 103.699538 L 46.218136 98.999303 L 18.006175 98.999303 L 18.006175 37.880422 L 65.024351 37.880422 L 65.024351 51.981127 L 36.81239 51.981127 L 36.81239 84.893322 L 46.218136 84.893322 L 46.218136 66.087107 L 65.024351 61.386872 Z M 116.737486 51.981127 L 88.525526 51.981127 L 88.525526 84.893322 L 116.737486 84.893322 L 116.737486 98.999303 L 69.71931 98.999303 L 69.71931 37.880422 L 116.737486 37.880422 Z M 116.737486 75.492853 L 93.231036 75.492853 L 93.231036 61.386872 L 116.737486 61.386872 Z M 168.450621 51.981127 L 140.238661 51.981127 L 140.238661 84.893322 L 168.450621 84.893322 L 168.450621 98.999303 L 121.432445 98.999303 L 121.432445 37.880422 L 168.450621 37.880422 Z M 168.450621 75.492853 L 144.944171 75.492853 L 144.944171 61.386872 L 168.450621 61.386872 Z M 201.357541 103.699538 L 201.357541 75.492853 L 191.951796 75.492853 L 191.951796 98.999303 L 173.145581 98.999303 L 173.145581 37.880422 L 191.951796 37.880422 L 191.951796 61.386872 L 201.357541 61.386872 L 201.357541 37.880422 L 220.163756 37.880422 L 220.163756 63.739628 L 201.357541 68.439862 L 220.163756 68.439862 L 220.163756 98.999303 Z M 201.357541 103.699538 " stroke="#000000" stroke-width="14.806094" stroke-opacity="1" stroke-miterlimit="4"/><path stroke-linecap="butt" transform="matrix(0.740488, 0, 0, 0.740488, 30.557264, 126.532024)" fill="none" stroke-linejoin="miter" d="M 274.234921 98.999303 L 274.234921 75.492853 L 264.829176 75.492853 L 264.829176 98.999303 L 246.022961 98.999303 L 246.022961 37.880422 L 264.829176 37.880422 L 264.829176 61.386872 L 274.234921 61.386872 L 274.234921 37.880422 L 293.041136 37.880422 L 293.041136 98.999303 Z M 344.754271 37.880422 L 344.754271 98.999303 L 297.736096 98.999303 L 297.736096 37.880422 L 316.542311 37.880422 L 316.542311 84.893322 L 325.948056 84.893322 L 325.948056 37.880422 Z M 396.467406 68.439862 L 396.467406 98.999303 L 349.449231 98.999303 L 349.449231 37.880422 L 396.467406 37.880422 L 396.467406 63.739628 L 377.661191 68.439862 Z M 377.661191 61.386872 L 377.661191 51.981127 L 368.255446 51.981127 L 368.255446 61.386872 Z M 377.661191 75.492853 L 368.255446 75.492853 L 368.255446 84.893322 L 377.661191 84.893322 Z M 377.661191 75.492853 " stroke="#000000" stroke-width="14.806094" stroke-opacity="1" stroke-miterlimit="4"/><g fill="#ffffff" fill-opacity="1"><g transform="translate(42.150533, 199.84036)"><g><path d="M 36.546875 3.484375 L 22.625 3.484375 L 22.625 0 L 1.734375 0 L 1.734375 -45.25 L 36.546875 -45.25 L 36.546875 -34.8125 L 15.671875 -34.8125 L 15.671875 -10.4375 L 22.625 -10.4375 L 22.625 -24.375 L 36.546875 -27.84375 Z M 36.546875 3.484375 "/></g></g></g><g fill="#ffffff" fill-opacity="1"><g transform="translate(80.443818, 199.84036)"><g><path d="M 36.546875 -34.8125 L 15.671875 -34.8125 L 15.671875 -10.4375 L 36.546875 -10.4375 L 36.546875 0 L 1.734375 0 L 1.734375 -45.25 L 36.546875 -45.25 Z M 36.546875 -17.40625 L 19.140625 -17.40625 L 19.140625 -27.84375 L 36.546875 -27.84375 Z M 36.546875 -17.40625 "/></g></g></g><g fill="#ffffff" fill-opacity="1"><g transform="translate(118.737103, 199.84036)"><g><path d="M 36.546875 -34.8125 L 15.671875 -34.8125 L 15.671875 -10.4375 L 36.546875 -10.4375 L 36.546875 0 L 1.734375 0 L 1.734375 -45.25 L 36.546875 -45.25 Z M 36.546875 -17.40625 L 19.140625 -17.40625 L 19.140625 -27.84375 L 36.546875 -27.84375 Z M 36.546875 -17.40625 "/></g></g></g><g fill="#ffffff" fill-opacity="1"><g transform="translate(157.030388, 199.84036)"><g><path d="M 22.625 3.484375 L 22.625 -17.40625 L 15.671875 -17.40625 L 15.671875 0 L 1.734375 0 L 1.734375 -45.25 L 15.671875 -45.25 L 15.671875 -27.84375 L 22.625 -27.84375 L 22.625 -45.25 L 36.546875 -45.25 L 36.546875 -26.109375 L 22.625 -22.625 L 36.546875 -22.625 L 36.546875 0 Z M 22.625 3.484375 "/></g></g></g><g fill="#ffffff" fill-opacity="1"><g transform="translate(195.327473, 199.84036)"><g/></g></g><g fill="#ffffff" fill-opacity="1"><g transform="translate(200.549284, 199.84036)"><g/></g></g><g fill="#ffffff" fill-opacity="1"><g transform="translate(205.771096, 199.84036)"><g/></g></g><g fill="#34edf3" fill-opacity="1"><g transform="translate(210.993427, 199.84036)"><g><path d="M 22.625 0 L 22.625 -17.40625 L 15.671875 -17.40625 L 15.671875 0 L 1.734375 0 L 1.734375 -45.25 L 15.671875 -45.25 L 15.671875 -27.84375 L 22.625 -27.84375 L 22.625 -45.25 L 36.546875 -45.25 L 36.546875 0 Z M 22.625 0 "/></g></g></g><g fill="#34edf3" fill-opacity="1"><g transform="translate(249.286712, 199.84036)"><g><path d="M 36.546875 -45.25 L 36.546875 0 L 1.734375 0 L 1.734375 -45.25 L 15.671875 -45.25 L 15.671875 -10.4375 L 22.625 -10.4375 L 22.625 -45.25 Z M 36.546875 -45.25 "/></g></g></g><g fill="#34edf3" fill-opacity="1"><g transform="translate(287.579997, 199.84036)"><g><path d="M 36.546875 -22.625 L 36.546875 0 L 1.734375 0 L 1.734375 -45.25 L 36.546875 -45.25 L 36.546875 -26.109375 L 22.625 -22.625 Z M 22.625 -27.84375 L 22.625 -34.8125 L 15.671875 -34.8125 L 15.671875 -27.84375 Z M 22.625 -17.40625 L 15.671875 -17.40625 L 15.671875 -10.4375 L 22.625 -10.4375 Z M 22.625 -17.40625 "/></g></g></g><g clip-path="url(#436838c0a0)"><path fill="#34edf3" d="M 285.921875 139.050781 L 331.238281 139.085938 L 308.625 107.617188 Z M 285.921875 139.050781 " fill-opacity="1" fill-rule="nonzero"/></g><g clip-path="url(#0e024426f8)"><path fill="#34edf3" d="M 286.585938 128.472656 L 308.625 97.957031 L 330.554688 128.488281 L 286.585938 128.472656 M 285.867188 128.472656 C 285.867188 128.578125 285.886719 128.6875 285.941406 128.792969 C 286.066406 129.027344 286.316406 129.1875 286.585938 129.1875 L 330.554688 129.207031 C 330.824219 129.207031 331.074219 129.0625 331.203125 128.8125 C 331.253906 128.703125 331.273438 128.597656 331.273438 128.488281 C 331.273438 128.34375 331.21875 128.203125 331.128906 128.074219 L 309.199219 97.542969 C 309.054688 97.363281 308.839844 97.238281 308.625 97.238281 C 308.390625 97.238281 308.175781 97.34375 308.050781 97.542969 L 286.011719 128.039062 C 285.921875 128.164062 285.867188 128.308594 285.867188 128.472656 Z M 285.867188 128.472656 " fill-opacity="1" fill-rule="nonzero"/></g><g clip-path="url(#041681f0c9)"><path fill="#34edf3" d="M 286.621094 118.339844 L 308.660156 87.84375 L 330.589844 118.375 L 286.621094 118.339844 M 285.902344 118.339844 C 285.902344 118.449219 285.921875 118.554688 285.976562 118.664062 C 286.101562 118.898438 286.351562 119.058594 286.621094 119.058594 L 330.589844 119.09375 C 330.859375 119.09375 331.113281 118.953125 331.238281 118.699219 C 331.292969 118.59375 331.308594 118.484375 331.308594 118.375 C 331.308594 118.234375 331.253906 118.089844 331.164062 117.964844 L 309.234375 87.429688 C 309.089844 87.25 308.875 87.125 308.660156 87.125 C 308.425781 87.125 308.210938 87.234375 308.085938 87.429688 L 286.046875 117.910156 C 285.957031 118.035156 285.902344 118.195312 285.902344 118.339844 Z M 285.902344 118.339844 " fill-opacity="1" fill-rule="nonzero"/></g></svg>