<svg xmlns="http://www.w3.org/2000/svg" xmlns:xlink="http://www.w3.org/1999/xlink" width="500" zoomAndPan="magnify" viewBox="0 0 375 374.999991" height="500" preserveAspectRatio="xMidYMid meet" version="1.0"><defs><g/><clipPath id="d850ef7a43"><path d="M 17 157.4375 L 367 157.4375 L 367 221.9375 L 17 221.9375 Z M 17 157.4375 " clip-rule="nonzero"/></clipPath><clipPath id="d65728e83d"><path d="M 299.132812 121 L 344.882812 121 L 344.882812 152.957031 L 299.132812 152.957031 Z M 299.132812 121 " clip-rule="nonzero"/></clipPath><clipPath id="d0e9898448"><path d="M 299.132812 111 L 344.882812 111 L 344.882812 144 L 299.132812 144 Z M 299.132812 111 " clip-rule="nonzero"/></clipPath><clipPath id="d741ff9c4a"><path d="M 299.132812 101.207031 L 344.882812 101.207031 L 344.882812 134 L 299.132812 134 Z M 299.132812 101.207031 " clip-rule="nonzero"/></clipPath></defs><path fill="#000000" d="M 364.320312 205.953125 C 363.042969 215.671875 356.730469 218.792969 347.648438 218.722656 C 347.507812 218.722656 347.367188 218.722656 347.222656 218.722656 C 323.464844 221.914062 296.652344 219.148438 272.535156 219.359375 C 245.867188 219.574219 219.125 219.644531 192.457031 219.644531 C 140.25 219.644531 88.046875 219.359375 35.84375 219.785156 C 22.71875 219.855469 19.597656 207.019531 19.882812 194.109375 C 19.8125 193.683594 19.742188 193.257812 19.671875 192.832031 C 19.597656 191.910156 19.527344 191.058594 19.597656 190.136719 C 19.386719 189.359375 19.316406 188.578125 19.386719 187.585938 C 20.023438 177.441406 20.664062 165.949219 29.457031 161.765625 C 30.664062 160.773438 32.296875 160.132812 34.421875 160.347656 C 34.566406 160.347656 34.636719 160.347656 34.777344 160.347656 C 35.203125 160.277344 35.558594 160.207031 35.984375 160.207031 C 90.386719 160.207031 144.933594 160.914062 199.476562 161.054688 C 224.941406 161.128906 250.335938 161.054688 275.796875 160.84375 C 299.0625 160.703125 322.964844 158.644531 346.089844 160.558594 C 356.160156 161.410156 362.472656 163.253906 363.75 174.179688 C 364.886719 184.535156 365.667969 195.671875 364.320312 205.953125 Z M 364.320312 205.953125 " fill-opacity="1" fill-rule="nonzero"/><g clip-path="url(#d850ef7a43)"><path fill="#000000" d="M 319.773438 222.054688 C 312.183594 222.054688 304.59375 221.84375 297.078125 221.558594 C 288.921875 221.277344 280.480469 221.0625 272.535156 221.132812 C 248.632812 221.347656 222.386719 221.417969 192.457031 221.417969 C 177.558594 221.417969 162.664062 221.417969 147.699219 221.347656 C 111.027344 221.277344 73.152344 221.203125 35.84375 221.558594 C 35.769531 221.558594 35.769531 221.558594 35.699219 221.558594 C 31.089844 221.558594 27.257812 220.070312 24.351562 217.160156 C 19.953125 212.695312 17.824219 204.960938 18.039062 194.25 L 17.824219 192.902344 C 17.753906 192.054688 17.683594 191.273438 17.753906 190.351562 C 17.542969 189.429688 17.472656 188.578125 17.542969 187.511719 L 17.542969 187.230469 C 18.324219 176.730469 19.03125 164.957031 28.535156 160.277344 C 30.238281 159 32.296875 158.359375 34.566406 158.574219 L 34.707031 158.574219 C 35.132812 158.503906 35.558594 158.433594 36.054688 158.433594 C 66.269531 158.433594 97.054688 158.644531 126.773438 158.859375 C 150.605469 159 175.289062 159.210938 199.546875 159.28125 C 224.871094 159.355469 250.546875 159.28125 275.867188 159.070312 C 283.386719 159 291.117188 158.785156 298.636719 158.503906 C 314.382812 158.007812 330.625 157.4375 346.375 158.785156 C 356.019531 159.636719 364.175781 161.339844 365.667969 173.964844 C 366.730469 183.824219 367.652344 195.316406 366.234375 206.167969 C 364.957031 215.886719 358.929688 220.566406 347.792969 220.496094 L 347.507812 220.496094 C 338.5 221.703125 329.207031 222.054688 319.773438 222.054688 Z M 275.300781 217.585938 C 282.464844 217.585938 289.984375 217.800781 297.21875 218.011719 C 313.957031 218.507812 331.265625 219.078125 347.011719 216.949219 L 347.648438 216.949219 C 347.722656 216.949219 347.863281 216.949219 347.933594 216.949219 C 357.011719 216.949219 361.550781 213.472656 362.546875 205.742188 C 363.894531 195.246094 363.042969 184.039062 361.976562 174.390625 C 360.914062 165.097656 356.375 163.253906 345.949219 162.332031 C 330.414062 161.054688 314.242188 161.554688 298.636719 162.050781 C 291.117188 162.261719 283.386719 162.546875 275.796875 162.617188 C 250.476562 162.828125 224.800781 162.902344 199.476562 162.828125 C 175.21875 162.757812 150.535156 162.617188 126.703125 162.402344 C 96.984375 162.261719 66.199219 161.976562 35.984375 161.976562 C 35.769531 161.976562 35.558594 162.050781 35.203125 162.050781 L 34.777344 162.121094 L 34.28125 162.121094 C 32.863281 161.976562 31.585938 162.332031 30.59375 163.113281 L 30.453125 163.253906 L 30.238281 163.328125 C 22.507812 167.085938 21.796875 177.867188 21.230469 187.441406 L 21.230469 187.726562 C 21.160156 188.507812 21.160156 189.074219 21.300781 189.710938 L 21.371094 189.996094 L 21.371094 190.28125 C 21.300781 191.058594 21.371094 191.769531 21.441406 192.621094 L 21.65625 193.96875 L 21.65625 194.109375 C 21.441406 203.828125 23.289062 210.921875 26.976562 214.679688 C 29.175781 216.949219 32.082031 218.011719 35.769531 218.011719 C 35.769531 218.011719 35.84375 218.011719 35.84375 218.011719 C 73.152344 217.730469 111.027344 217.800781 147.769531 217.800781 C 162.664062 217.800781 177.558594 217.871094 192.527344 217.871094 C 222.53125 217.871094 248.703125 217.800781 272.605469 217.585938 C 273.457031 217.585938 274.378906 217.585938 275.300781 217.585938 Z M 275.300781 217.585938 " fill-opacity="1" fill-rule="nonzero"/></g><path stroke-linecap="butt" transform="matrix(1.393964, 0, 0, 1.393964, 31.681691, 135.22628)" fill="none" stroke-linejoin="miter" d="M 36.226191 57.617487 L 25.75134 57.617487 L 25.75134 55.000176 L 10.044668 55.000176 L 10.044668 20.963916 L 36.226191 20.963916 L 36.226191 28.818653 L 20.516717 28.818653 L 20.516717 47.145439 L 25.75134 47.145439 L 25.75134 36.67339 L 36.226191 34.056078 Z M 65.019421 28.818653 L 49.309946 28.818653 L 49.309946 47.145439 L 65.019421 47.145439 L 65.019421 55.000176 L 38.837898 55.000176 L 38.837898 20.963916 L 65.019421 20.963916 Z M 65.019421 41.908013 L 51.927258 41.908013 L 51.927258 34.056078 L 65.019421 34.056078 Z M 93.81265 28.818653 L 78.103176 28.818653 L 78.103176 47.145439 L 93.81265 47.145439 L 93.81265 55.000176 L 67.631128 55.000176 L 67.631128 20.963916 L 93.81265 20.963916 Z M 93.81265 41.908013 L 80.72329 41.908013 L 80.72329 34.056078 L 93.81265 34.056078 Z M 112.133831 57.617487 L 112.133831 41.908013 L 106.899208 41.908013 L 106.899208 55.000176 L 96.424357 55.000176 L 96.424357 20.963916 L 106.899208 20.963916 L 106.899208 34.056078 L 112.133831 34.056078 L 112.133831 20.963916 L 122.608682 20.963916 L 122.608682 35.364734 L 112.133831 37.982046 L 122.608682 37.982046 L 122.608682 55.000176 Z M 112.133831 57.617487 " stroke="#000000" stroke-width="6.70335" stroke-opacity="1" stroke-miterlimit="4"/><path stroke-linecap="butt" transform="matrix(1.393964, 0, 0, 1.393964, 31.681691, 135.22628)" fill="none" stroke-linejoin="miter" d="M 152.721777 55.000176 L 152.721777 41.908013 L 147.484352 41.908013 L 147.484352 55.000176 L 137.012303 55.000176 L 137.012303 20.963916 L 147.484352 20.963916 L 147.484352 34.056078 L 152.721777 34.056078 L 152.721777 20.963916 L 163.193826 20.963916 L 163.193826 55.000176 Z M 191.987055 20.963916 L 191.987055 55.000176 L 165.805533 55.000176 L 165.805533 20.963916 L 176.277581 20.963916 L 176.277581 47.145439 L 181.515007 47.145439 L 181.515007 20.963916 Z M 220.783087 37.982046 L 220.783087 55.000176 L 194.601565 55.000176 L 194.601565 20.963916 L 220.783087 20.963916 L 220.783087 35.364734 L 210.308237 37.982046 Z M 210.308237 34.056078 L 210.308237 28.818653 L 205.073613 28.818653 L 205.073613 34.056078 Z M 210.308237 41.908013 L 205.073613 41.908013 L 205.073613 47.145439 L 210.308237 47.145439 Z M 210.308237 41.908013 " stroke="#000000" stroke-width="6.70335" stroke-opacity="1" stroke-miterlimit="4"/><g fill="#ffffff" fill-opacity="1"><g transform="translate(43.857093, 211.894287)"><g><path d="M 38.328125 3.65625 L 23.71875 3.65625 L 23.71875 0 L 1.828125 0 L 1.828125 -47.453125 L 38.328125 -47.453125 L 38.328125 -36.5 L 16.421875 -36.5 L 16.421875 -10.953125 L 23.71875 -10.953125 L 23.71875 -25.546875 L 38.328125 -29.203125 Z M 38.328125 3.65625 "/></g></g></g><g fill="#ffffff" fill-opacity="1"><g transform="translate(83.995022, 211.894287)"><g><path d="M 38.328125 -36.5 L 16.421875 -36.5 L 16.421875 -10.953125 L 38.328125 -10.953125 L 38.328125 0 L 1.828125 0 L 1.828125 -47.453125 L 38.328125 -47.453125 Z M 38.328125 -18.25 L 20.078125 -18.25 L 20.078125 -29.203125 L 38.328125 -29.203125 Z M 38.328125 -18.25 "/></g></g></g><g fill="#ffffff" fill-opacity="1"><g transform="translate(124.132951, 211.894287)"><g><path d="M 38.328125 -36.5 L 16.421875 -36.5 L 16.421875 -10.953125 L 38.328125 -10.953125 L 38.328125 0 L 1.828125 0 L 1.828125 -47.453125 L 38.328125 -47.453125 Z M 38.328125 -18.25 L 20.078125 -18.25 L 20.078125 -29.203125 L 38.328125 -29.203125 Z M 38.328125 -18.25 "/></g></g></g><g fill="#ffffff" fill-opacity="1"><g transform="translate(164.27088, 211.894287)"><g><path d="M 23.71875 3.65625 L 23.71875 -18.25 L 16.421875 -18.25 L 16.421875 0 L 1.828125 0 L 1.828125 -47.453125 L 16.421875 -47.453125 L 16.421875 -29.203125 L 23.71875 -29.203125 L 23.71875 -47.453125 L 38.328125 -47.453125 L 38.328125 -27.375 L 23.71875 -23.71875 L 38.328125 -23.71875 L 38.328125 0 Z M 23.71875 3.65625 "/></g></g></g><g fill="#ffffff" fill-opacity="1"><g transform="translate(204.424293, 211.894287)"><g/></g></g><g fill="#ffffff" fill-opacity="1"><g transform="translate(209.897647, 211.894287)"><g/></g></g><g fill="#ffffff" fill-opacity="1"><g transform="translate(215.371001, 211.894287)"><g/></g></g><g fill="#34edf3" fill-opacity="1"><g transform="translate(220.846928, 211.894287)"><g><path d="M 23.71875 0 L 23.71875 -18.25 L 16.421875 -18.25 L 16.421875 0 L 1.828125 0 L 1.828125 -47.453125 L 16.421875 -47.453125 L 16.421875 -29.203125 L 23.71875 -29.203125 L 23.71875 -47.453125 L 38.328125 -47.453125 L 38.328125 0 Z M 23.71875 0 "/></g></g></g><g fill="#34edf3" fill-opacity="1"><g transform="translate(260.984857, 211.894287)"><g><path d="M 38.328125 -47.453125 L 38.328125 0 L 1.828125 0 L 1.828125 -47.453125 L 16.421875 -47.453125 L 16.421875 -10.953125 L 23.71875 -10.953125 L 23.71875 -47.453125 Z M 38.328125 -47.453125 "/></g></g></g><g fill="#34edf3" fill-opacity="1"><g transform="translate(301.122786, 211.894287)"><g><path d="M 38.328125 -23.71875 L 38.328125 0 L 1.828125 0 L 1.828125 -47.453125 L 38.328125 -47.453125 L 38.328125 -27.375 L 23.71875 -23.71875 Z M 23.71875 -29.203125 L 23.71875 -36.5 L 16.421875 -36.5 L 16.421875 -29.203125 Z M 23.71875 -18.25 L 16.421875 -18.25 L 16.421875 -10.953125 L 23.71875 -10.953125 Z M 23.71875 -18.25 "/></g></g></g><g clip-path="url(#d65728e83d)"><path fill="#000000" d="M 299.1875 152.921875 L 344.808594 152.957031 L 322.042969 121.617188 Z M 299.1875 152.921875 " fill-opacity="1" fill-rule="nonzero"/></g><g clip-path="url(#d0e9898448)"><path fill="#000000" d="M 299.859375 142.382812 L 322.042969 111.992188 L 344.121094 142.402344 L 299.859375 142.382812 M 299.132812 142.382812 C 299.132812 142.492188 299.152344 142.597656 299.207031 142.707031 C 299.332031 142.9375 299.585938 143.101562 299.859375 143.101562 L 344.121094 143.117188 C 344.390625 143.117188 344.644531 142.976562 344.773438 142.722656 C 344.828125 142.617188 344.84375 142.507812 344.84375 142.402344 C 344.84375 142.257812 344.789062 142.117188 344.699219 141.992188 L 322.621094 111.582031 C 322.476562 111.402344 322.261719 111.277344 322.042969 111.277344 C 321.808594 111.277344 321.589844 111.382812 321.464844 111.582031 L 299.28125 141.957031 C 299.1875 142.082031 299.132812 142.222656 299.132812 142.382812 Z M 299.132812 142.382812 " fill-opacity="1" fill-rule="nonzero"/></g><g clip-path="url(#d741ff9c4a)"><path fill="#000000" d="M 299.894531 132.296875 L 322.078125 101.921875 L 344.15625 132.332031 L 299.894531 132.296875 M 299.171875 132.296875 C 299.171875 132.402344 299.1875 132.511719 299.242188 132.617188 C 299.371094 132.851562 299.621094 133.011719 299.894531 133.011719 L 344.15625 133.046875 C 344.429688 133.046875 344.683594 132.902344 344.808594 132.652344 C 344.863281 132.546875 344.878906 132.4375 344.878906 132.332031 C 344.878906 132.1875 344.828125 132.046875 344.734375 131.921875 L 322.660156 101.511719 C 322.515625 101.332031 322.296875 101.207031 322.078125 101.207031 C 321.84375 101.207031 321.628906 101.3125 321.5 101.511719 L 299.316406 131.867188 C 299.226562 131.992188 299.171875 132.152344 299.171875 132.296875 Z M 299.171875 132.296875 " fill-opacity="1" fill-rule="nonzero"/></g></svg>